<svg width="623" height="161" viewBox="0 0 623 161" fill="none" xmlns="http://www.w3.org/2000/svg">
<rect width="623" height="161" fill="#10090B"/>
<circle cx="101.5" cy="80.5" r="72.5" fill="#A4002C"/>
<path d="M50.4487 118.364C50.7239 118.552 50.9991 118.74 51.2744 118.928C54.3017 115.855 57.2928 112.758 60.2475 109.635C67.0481 102.449 73.6563 95.1309 80.0721 87.6814L81.1077 85.2059C85.4136 71.5046 89.2314 57.7079 92.5612 43.8159L73.6689 45.8709C76.7839 53.9647 80.067 61.9855 83.5183 69.9334C86.1497 75.9934 88.8392 82.0281 91.5868 88.0377L91.8198 88.5373C97.8201 99.9983 104.037 111.351 110.472 122.595L120.352 144.061L126.955 120.787C129.777 105.964 132.279 91.0604 134.461 76.0773L133.676 77.8108C138.11 69.8161 142.445 61.7531 146.682 53.6216C148.659 49.8269 150.615 46.0172 152.549 42.1926C152.275 42.0027 152.002 41.8127 151.728 41.6227C148.823 44.7745 145.94 47.9412 143.079 51.1228C136.948 57.9403 130.915 64.8261 124.981 71.7804L124.195 73.5139C119.079 87.7645 114.282 102.095 109.804 116.505L126.287 114.697C121.165 102.798 115.825 91.0073 110.268 79.3249L110.501 79.8246C107.985 73.7142 105.412 67.629 102.781 61.569C99.3293 53.6212 95.71 45.7463 91.9225 37.9445L78.5505 8.65651L73.0302 39.9994C70.8856 54.123 69.229 68.342 68.0604 82.6564L69.096 80.1809C64.4869 88.865 60.0702 97.6806 55.8459 106.628C54.0105 110.515 52.2115 114.427 50.4487 118.364Z" fill="#E6CED8"/>
<path d="M212.792 48.872L212.28 43.88C212.28 42.7707 212.749 41.9173 213.688 41.32C218.552 38.0773 225.421 35.3893 234.296 33.256C237.965 32.488 240.995 32.104 243.384 32.104C255.501 32.104 264.248 39.528 269.624 54.376C271.501 59.6667 272.44 65.256 272.44 71.144C272.44 80.0187 270.093 88.9787 265.4 98.024C260.707 107.069 255.885 114.365 250.936 119.912C248.205 122.813 245.304 124.264 242.232 124.264C239.16 124.264 236.771 123.069 235.064 120.68C233.357 118.291 232.504 115.261 232.504 111.592C232.504 107.837 233.187 103.656 234.552 99.048C235.917 94.44 238.051 91.5387 240.952 90.344C240.525 92.3067 240.312 94.3973 240.312 96.616C240.312 98.7493 241.037 101.395 242.488 104.552C244.024 107.709 245.816 109.288 247.864 109.288C249.912 109.288 251.576 108.093 252.856 105.704C258.147 96.1467 260.792 85.2667 260.792 73.064C260.792 58.5573 256.995 49.1707 249.4 44.904C247.181 43.7093 245.048 43.112 243 43.112C240.952 43.112 238.733 43.7093 236.344 44.904C237.027 48.5733 237.368 53.224 237.368 58.856C237.368 64.4027 236.387 73.32 234.424 85.608C232.547 97.8107 231.608 107.112 231.608 113.512V117.608C231.608 119.827 231.096 121.277 230.072 121.96C229.048 122.643 227.981 122.984 226.872 122.984C223.715 122.984 221.496 117.139 220.216 105.448C219.704 100.755 219.277 97.5973 218.936 95.976C219.192 95.8907 219.576 95.848 220.088 95.848C221.624 95.848 223.416 96.9573 225.464 99.176V95.848C225.379 89.1067 226.275 76.8187 228.152 58.984C228.237 58.3013 228.28 57.064 228.28 55.272C228.28 53.3947 228.109 51.4747 227.768 49.512C227.171 49.8533 225.976 50.7493 224.184 52.2C220.003 55.6133 217.016 57.32 215.224 57.32C213.517 57.32 212.664 55.8267 212.664 52.84L212.792 48.872ZM306.646 91.112C306.646 101.437 303.659 110.611 297.686 118.632C295.553 121.363 293.163 122.728 290.518 122.728C287.958 122.728 285.91 122.088 284.374 120.808C278.827 116.2 276.054 108.307 276.054 97.128C276.054 89.3627 278.145 79.464 282.326 67.432C282.667 66.5787 282.966 66.0667 283.222 65.896C283.478 65.64 283.905 65.512 284.502 65.512C285.185 65.512 285.995 65.0853 286.934 64.232C287.873 63.2933 289.409 62.824 291.542 62.824C293.761 62.824 295.979 63.6347 298.198 65.256C300.417 66.8773 302.038 69.0533 303.062 71.784C305.451 78.184 306.646 84.6267 306.646 91.112ZM296.022 82.792C296.022 74.9413 295.041 71.016 293.078 71.016C292.139 71.016 291.286 71.7413 290.518 73.192C287.105 81.2987 285.398 90.984 285.398 102.248C285.398 105.064 285.441 107.197 285.526 108.648C292.523 103.272 296.022 94.6533 296.022 82.792ZM336.392 79.976C337.16 79.976 337.8 79.976 338.312 79.976C338.824 79.976 339.336 80.0187 339.848 80.104C340.36 80.104 340.744 80.1467 341 80.232C341.256 80.232 341.555 80.3173 341.896 80.488C342.323 80.5733 342.621 80.744 342.792 81C342.963 81.1707 343.133 81.384 343.304 81.64C343.731 82.0667 343.944 82.6213 343.944 83.304C343.944 83.9867 343.731 86.3333 343.304 90.344C342.877 94.3547 342.664 97.5547 342.664 99.944C342.664 106.771 343.133 110.184 344.072 110.184C344.413 110.184 344.84 109.672 345.352 108.648C347.912 103.443 349.192 96.36 349.192 87.4C349.192 78.6107 348.765 73.3627 347.912 71.656C347.144 69.9493 346.376 68.7973 345.608 68.2C344.84 67.5173 344.115 66.92 343.432 66.408C342.835 65.896 342.536 65.512 342.536 65.256C342.536 64.4027 343.261 63.976 344.712 63.976H346.632C348.509 64.0613 350.088 65.4693 351.368 68.2C356.659 79.3787 359.304 90.0453 359.304 100.2C359.304 104.893 358.792 109.16 357.768 113C355.805 120.083 352.392 123.624 347.528 123.624C345.651 123.624 343.688 122.899 341.64 121.448C339.592 119.912 338.013 117.949 336.904 115.56C335.88 113.171 335.027 110.056 334.344 106.216C333.405 109.288 331.869 112.744 329.736 116.584C327.603 120.339 325.597 122.216 323.72 122.216C323.037 122.216 322.355 121.96 321.672 121.448C316.381 117.523 313.736 110.611 313.736 100.712C313.736 95.336 314.461 90.344 315.912 85.736C316.424 84.2853 317.405 81.5973 318.856 77.672C315.613 79.8053 313.224 80.872 311.688 80.872C310.237 80.872 309.085 79.9333 308.232 78.056C307.037 75.496 306.44 72.0827 306.44 67.816C306.44 66.792 306.867 66.28 307.72 66.28L309.512 66.536C310.365 66.536 312.2 65.8533 315.016 64.488C317.832 63.1227 319.752 62.44 320.776 62.44C323.165 62.44 325.128 63.9333 326.664 66.92C328.2 69.8213 328.968 72.2533 328.968 74.216C328.968 76.0933 328.755 78.056 328.328 80.104C327.901 82.0667 326.877 85.992 325.256 91.88C322.952 100.328 321.8 105.064 321.8 106.088C321.8 107.027 321.971 107.496 322.312 107.496C322.653 107.496 323.123 107.069 323.72 106.216C327.133 100.925 330.12 93.2027 332.68 83.048C333.192 81 334.429 79.976 336.392 79.976ZM406.553 92.904C406.553 97.0853 406.34 100.712 405.913 103.784C405.486 106.856 403.95 110.995 401.305 116.2C398.66 121.32 396.057 123.88 393.497 123.88C392.388 123.88 391.321 123.283 390.297 122.088C385.262 116.029 382.745 110.269 382.745 104.808C382.745 103.187 383.3 99.4747 384.409 93.672C385.945 84.968 386.713 80.1467 386.713 79.208C386.713 78.184 386.542 77.672 386.201 77.672C385.945 77.672 385.646 78.0133 385.305 78.696C383.086 82.6213 381.294 87.1013 379.929 92.136C378.564 97.0853 377.668 101.267 377.241 104.68C376.814 108.093 376.345 112.872 375.833 119.016C375.833 121.149 375.278 122.216 374.169 122.216C373.657 122.216 372.804 121.747 371.609 120.808C367.001 116.883 364.697 111.507 364.697 104.68C364.697 101.779 364.953 97.768 365.465 92.648C366.062 87.528 366.404 83.9867 366.489 82.024C367.428 70.1627 368.58 64.232 369.945 64.232C370.713 64.232 371.268 65.0853 371.609 66.792C371.95 68.4133 372.121 70.2907 372.121 72.424C372.121 74.472 372.164 76.3493 372.249 78.056C372.42 79.7627 372.761 80.616 373.273 80.616C373.785 80.616 374.51 79.2507 375.449 76.52C376.388 73.7893 377.753 71.0587 379.545 68.328C381.422 65.512 383.428 64.104 385.561 64.104C387.694 64.104 389.572 64.5733 391.193 65.512C394.862 67.3893 396.697 71.3147 396.697 77.288C396.697 79.336 396.441 81.8533 395.929 84.84C395.417 87.8267 394.948 91.112 394.521 94.696C394.18 98.1947 394.009 100.2 394.009 100.712C394.009 101.139 394.18 101.352 394.521 101.352C395.204 101.352 396.91 99.6453 399.641 96.232C402.457 92.8187 404.377 91.112 405.401 91.112C406.169 91.112 406.553 91.7093 406.553 92.904ZM418.276 31.08L417.636 27.24C417.636 26.216 418.191 25.704 419.3 25.704C419.727 25.704 420.281 25.7893 420.964 25.96C426.084 26.984 428.644 29.928 428.644 34.792C428.644 35.9867 428.516 37.3093 428.26 38.76C428.004 40.1253 427.492 43.0267 426.724 47.464C426.041 51.9013 425.529 55.1013 425.188 57.064L423.908 65.896C421.86 79.3787 420.836 91.7947 420.836 103.144C420.836 105.619 421.433 106.856 422.628 106.856C423.055 106.856 423.524 106.6 424.036 106.088C430.009 98.5787 433.465 94.0133 434.404 92.392C435.428 90.6853 436.153 89.832 436.58 89.832C437.092 89.832 437.348 90.4293 437.348 91.624C437.348 92.7333 437.092 94.9093 436.58 98.152C436.153 101.309 435.897 103.357 435.812 104.296C435.727 105.149 435.513 106.131 435.172 107.24C434.916 108.349 434.66 109.245 434.404 109.928C434.233 110.525 433.807 111.421 433.124 112.616C432.441 113.725 431.972 114.451 431.716 114.792C429.924 117.181 428.473 119.059 427.364 120.424C426.34 121.704 425.103 122.344 423.652 122.344C422.287 122.344 420.964 121.704 419.684 120.424C418.404 119.144 417.465 117.992 416.868 116.968C416.356 115.944 415.588 114.365 414.564 112.232C411.577 106.429 410.084 100.328 410.084 93.928C410.084 88.4667 410.681 81.768 411.876 73.832C413.156 65.896 413.924 60.9467 414.18 58.984C412.217 58.984 411.236 58.1307 411.236 56.424C411.236 55.7413 411.321 55.1013 411.492 54.504C411.748 53.8213 412.559 51.432 413.924 47.336C416.825 39.0587 418.276 33.64 418.276 31.08ZM470.271 91.112C470.271 101.437 467.284 110.611 461.311 118.632C459.178 121.363 456.788 122.728 454.143 122.728C451.583 122.728 449.535 122.088 447.999 120.808C442.452 116.2 439.679 108.307 439.679 97.128C439.679 89.3627 441.77 79.464 445.951 67.432C446.292 66.5787 446.591 66.0667 446.847 65.896C447.103 65.64 447.53 65.512 448.127 65.512C448.81 65.512 449.62 65.0853 450.559 64.232C451.498 63.2933 453.034 62.824 455.167 62.824C457.386 62.824 459.604 63.6347 461.823 65.256C464.042 66.8773 465.663 69.0533 466.687 71.784C469.076 78.184 470.271 84.6267 470.271 91.112ZM459.647 82.792C459.647 74.9413 458.666 71.016 456.703 71.016C455.764 71.016 454.911 71.7413 454.143 73.192C450.73 81.2987 449.023 90.984 449.023 102.248C449.023 105.064 449.066 107.197 449.151 108.648C456.148 103.272 459.647 94.6533 459.647 82.792ZM502.961 104.424C495.964 116.968 490.63 123.24 486.961 123.24C484.316 123.24 481.926 121.619 479.793 118.376C479.196 117.523 478.556 116.2 477.873 114.408C477.19 112.531 476.337 110.824 475.313 109.288C474.374 107.752 473.905 105.704 473.905 103.144C473.905 100.499 474.417 98.152 475.441 96.104C482.438 82.28 489.82 72.808 497.585 67.688C498.609 66.92 499.804 66.536 501.169 66.536C502.534 66.536 504.241 67.304 506.289 68.84C507.484 70.0347 508.209 71.0587 508.465 71.912C508.892 73.7893 509.105 74.9413 509.105 75.368C512.092 76.392 513.585 78.2693 513.585 81C513.585 82.8773 513.073 87.144 512.049 93.8C511.025 100.371 510.428 105.277 510.257 108.52C510.257 110.312 510.854 111.208 512.049 111.208C513.414 111.208 515.846 108.819 519.345 104.04C522.929 99.2613 524.977 96.872 525.489 96.872C526.342 96.872 526.769 98.28 526.769 101.096L526.513 107.368C526.513 109.757 525.446 113.043 523.313 117.224C521.18 121.32 518.449 123.368 515.121 123.368C513.073 123.368 511.452 122.685 510.257 121.32C509.83 120.893 509.19 120.04 508.337 118.76C505.692 114.92 503.9 110.141 502.961 104.424ZM504.113 74.856C493.361 84.6693 486.534 95.8907 483.633 108.52C492.252 101.096 499.078 89.8747 504.113 74.856ZM575.021 103.144L575.405 109.8C575.405 114.493 574.168 116.84 571.693 116.84C569.73 116.84 568.024 115.816 566.573 113.768C565.122 111.72 564.013 109.885 563.245 108.264C562.477 106.557 561.709 104.979 560.941 103.528C560.173 101.992 559.49 100.2 558.893 98.152C558.808 98.408 558.552 99.304 558.125 100.84L557.101 104.296C556.077 108.051 555.266 110.568 554.669 111.848C554.157 113.043 553.56 114.408 552.877 115.944C552.28 117.395 551.64 118.589 550.957 119.528C550.274 120.381 549.549 121.235 548.781 122.088C547.245 123.88 545.368 124.776 543.149 124.776C541.016 124.776 538.925 123.539 536.877 121.064C533.378 116.968 530.818 111.848 529.197 105.704C528.429 103.144 528.045 100.2 528.045 96.872C528.045 93.544 529.069 89.8747 531.117 85.864C533.165 81.768 536.237 77.288 540.333 72.424C544.429 67.56 548.226 65.128 551.725 65.128C553.602 65.128 555.736 66.024 558.125 67.816C558.637 63.208 559.49 56.68 560.685 48.232C561.88 39.784 562.605 34.28 562.861 31.72C563.117 29.0747 564.013 27.752 565.549 27.752C567.17 27.752 568.322 28.6053 569.005 30.312C569.773 31.9333 570.157 33.5547 570.157 35.176C570.157 36.7973 570.029 38.2907 569.773 39.656C567.384 64.0613 566.189 83.9013 566.189 99.176C566.189 101.48 566.829 102.632 568.109 102.632C569.389 102.632 570.754 101.651 572.205 99.688C573.741 97.64 574.722 96.616 575.149 96.616C575.661 96.616 575.917 96.9573 575.917 97.64L575.021 103.144ZM554.797 78.696C554.797 77.672 554.285 77.16 553.261 77.16C552.322 77.16 551.17 77.5867 549.805 78.44C545.368 80.9147 541.698 84.7547 538.797 89.96C535.981 95.1653 534.573 100.371 534.573 105.576C534.573 108.733 535.554 110.312 537.517 110.312C538.285 110.312 539.138 109.843 540.077 108.904C544.856 103.869 549.592 94.568 554.285 81C554.626 80.1467 554.797 79.3787 554.797 78.696Z" fill="white"/>
</svg>
