<svg width="360" height="360" viewBox="0 0 360 360" fill="none" xmlns="http://www.w3.org/2000/svg">
<circle cx="180" cy="180" r="180" fill="#A4002C"/>
<path d="M53.8641 274.426C54.1393 274.614 54.4145 274.802 54.6897 274.99C61.2684 266.72 67.8107 258.426 74.3167 250.106C89.291 230.959 104.073 211.68 118.662 192.269L119.698 189.793C128.062 155.322 135.939 120.755 143.327 86.0929L124.435 88.1478C132.667 108.026 141.068 127.832 149.636 147.564C156.17 162.61 162.761 177.63 169.41 192.625L169.643 193.125C184.212 221.744 198.997 250.254 214 278.657L224.363 300.091L230.483 276.849C238.716 240.352 246.63 203.775 254.224 167.119L253.438 168.853C265.559 149.775 277.581 130.629 289.505 111.415C295.069 102.448 300.612 93.4662 306.134 84.4696C305.86 84.2796 305.586 84.0896 305.312 83.8997C298.821 92.2236 292.351 100.562 285.902 108.916C272.084 126.816 258.365 144.785 244.744 162.822L243.958 164.556C233.43 200.48 223.221 236.483 213.332 272.566L229.816 270.759C216.125 241.702 202.216 212.753 188.091 183.912L188.324 184.412C181.907 169.316 175.432 154.246 168.899 139.2C160.33 119.468 151.593 99.808 142.689 80.2214L129.686 50.8834L123.796 82.2764C117.593 117.17 111.878 152.159 106.651 187.244L107.686 184.768C94.9034 205.414 82.3131 226.19 69.9151 247.099C64.5285 256.183 59.1781 265.292 53.8641 274.426Z" fill="#E6CED8"/>
</svg>
